<mxfile host="app.diagrams.net" modified="2024-02-29T07:51:13.760Z" agent="Mozilla/5.0 (Windows NT 10.0; Win64; x64) AppleWebKit/537.36 (KHTML, like Gecko) Chrome/120.0.0.0 YaBrowser/24.1.0.0 Safari/537.36" etag="76ecGOLj5ACOlCHM7e8H" version="23.1.7" type="github">
  <diagram name="Страница — 1" id="JVCSX2KbKuvQoKLBLbLK">
    <mxGraphModel dx="660" dy="377" grid="1" gridSize="10" guides="1" tooltips="1" connect="1" arrows="1" fold="1" page="1" pageScale="1" pageWidth="827" pageHeight="1169" math="0" shadow="0">
      <root>
        <mxCell id="0" />
        <mxCell id="1" parent="0" />
        <mxCell id="72kNY6IZa3AUDY2A56L6-1" value="" style="shape=actor;whiteSpace=wrap;html=1;" vertex="1" parent="1">
          <mxGeometry x="80" y="140" width="40" height="60" as="geometry" />
        </mxCell>
        <mxCell id="72kNY6IZa3AUDY2A56L6-2" value="" style="shape=actor;whiteSpace=wrap;html=1;" vertex="1" parent="1">
          <mxGeometry x="80" y="300" width="40" height="60" as="geometry" />
        </mxCell>
        <mxCell id="72kNY6IZa3AUDY2A56L6-3" value="" style="endArrow=none;html=1;rounded=0;" edge="1" parent="1">
          <mxGeometry width="50" height="50" relative="1" as="geometry">
            <mxPoint x="100" y="270" as="sourcePoint" />
            <mxPoint x="100" y="300" as="targetPoint" />
            <Array as="points">
              <mxPoint x="100" y="200" />
            </Array>
          </mxGeometry>
        </mxCell>
        <mxCell id="72kNY6IZa3AUDY2A56L6-4" value="" style="swimlane;startSize=0;fillColor=#008a00;strokeColor=#005700;fillStyle=auto;fontColor=#ffffff;" vertex="1" parent="1">
          <mxGeometry x="180" y="100" width="320" height="290" as="geometry">
            <mxRectangle x="180" y="100" width="50" height="40" as="alternateBounds" />
          </mxGeometry>
        </mxCell>
        <mxCell id="72kNY6IZa3AUDY2A56L6-7" value="" style="ellipse;whiteSpace=wrap;html=1;" vertex="1" parent="72kNY6IZa3AUDY2A56L6-4">
          <mxGeometry x="20" y="20" width="100" height="40" as="geometry" />
        </mxCell>
        <mxCell id="72kNY6IZa3AUDY2A56L6-10" value="" style="ellipse;whiteSpace=wrap;html=1;" vertex="1" parent="72kNY6IZa3AUDY2A56L6-4">
          <mxGeometry x="20" y="245" width="100" height="40" as="geometry" />
        </mxCell>
        <mxCell id="72kNY6IZa3AUDY2A56L6-11" value="Stroymaterials" style="text;html=1;align=center;verticalAlign=middle;whiteSpace=wrap;rounded=0;" vertex="1" parent="72kNY6IZa3AUDY2A56L6-4">
          <mxGeometry x="100" width="90" height="30" as="geometry" />
        </mxCell>
        <mxCell id="72kNY6IZa3AUDY2A56L6-19" value="&lt;font style=&quot;font-size: 9px;&quot;&gt;Администрирование&lt;/font&gt;" style="text;html=1;align=center;verticalAlign=middle;whiteSpace=wrap;rounded=0;" vertex="1" parent="72kNY6IZa3AUDY2A56L6-4">
          <mxGeometry x="40" y="25" width="60" height="30" as="geometry" />
        </mxCell>
        <mxCell id="72kNY6IZa3AUDY2A56L6-20" value="" style="endArrow=none;html=1;rounded=0;exitX=0.5;exitY=0;exitDx=0;exitDy=0;" edge="1" parent="72kNY6IZa3AUDY2A56L6-4" source="72kNY6IZa3AUDY2A56L6-24">
          <mxGeometry width="50" height="50" relative="1" as="geometry">
            <mxPoint x="70" y="90" as="sourcePoint" />
            <mxPoint x="70" y="60" as="targetPoint" />
          </mxGeometry>
        </mxCell>
        <mxCell id="72kNY6IZa3AUDY2A56L6-22" value="Просмотр сайта" style="text;html=1;align=center;verticalAlign=middle;whiteSpace=wrap;rounded=0;" vertex="1" parent="72kNY6IZa3AUDY2A56L6-4">
          <mxGeometry x="40" y="250" width="60" height="30" as="geometry" />
        </mxCell>
        <mxCell id="72kNY6IZa3AUDY2A56L6-26" value="" style="ellipse;whiteSpace=wrap;html=1;" vertex="1" parent="72kNY6IZa3AUDY2A56L6-4">
          <mxGeometry x="210" y="190" width="100" height="40" as="geometry" />
        </mxCell>
        <mxCell id="72kNY6IZa3AUDY2A56L6-28" value="" style="endArrow=none;html=1;rounded=0;entryX=0.5;entryY=1;entryDx=0;entryDy=0;exitX=0.5;exitY=0;exitDx=0;exitDy=0;" edge="1" parent="72kNY6IZa3AUDY2A56L6-4" source="72kNY6IZa3AUDY2A56L6-26" target="72kNY6IZa3AUDY2A56L6-25">
          <mxGeometry width="50" height="50" relative="1" as="geometry">
            <mxPoint x="180" y="160" as="sourcePoint" />
            <mxPoint x="230" y="110" as="targetPoint" />
          </mxGeometry>
        </mxCell>
        <mxCell id="72kNY6IZa3AUDY2A56L6-29" value="" style="endArrow=none;html=1;rounded=0;entryX=0;entryY=0;entryDx=0;entryDy=0;exitX=1;exitY=1;exitDx=0;exitDy=0;" edge="1" parent="72kNY6IZa3AUDY2A56L6-4" source="72kNY6IZa3AUDY2A56L6-9" target="72kNY6IZa3AUDY2A56L6-26">
          <mxGeometry width="50" height="50" relative="1" as="geometry">
            <mxPoint x="120" y="180" as="sourcePoint" />
            <mxPoint x="170" y="130" as="targetPoint" />
          </mxGeometry>
        </mxCell>
        <mxCell id="72kNY6IZa3AUDY2A56L6-30" value="" style="endArrow=none;html=1;rounded=0;exitX=0.5;exitY=0;exitDx=0;exitDy=0;entryX=0.5;entryY=1;entryDx=0;entryDy=0;" edge="1" parent="72kNY6IZa3AUDY2A56L6-4" source="72kNY6IZa3AUDY2A56L6-25" target="72kNY6IZa3AUDY2A56L6-27">
          <mxGeometry width="50" height="50" relative="1" as="geometry">
            <mxPoint x="210" y="110" as="sourcePoint" />
            <mxPoint x="260" y="70" as="targetPoint" />
          </mxGeometry>
        </mxCell>
        <mxCell id="72kNY6IZa3AUDY2A56L6-32" value="&lt;font style=&quot;font-size: 8px;&quot;&gt;&lt;font style=&quot;font-size: 8px;&quot;&gt;Просмотр сайта с расшире&lt;/font&gt;&lt;font style=&quot;font-size: 8px;&quot;&gt;нным доступом&lt;/font&gt;&lt;/font&gt;" style="text;html=1;align=center;verticalAlign=middle;whiteSpace=wrap;rounded=0;" vertex="1" parent="72kNY6IZa3AUDY2A56L6-4">
          <mxGeometry x="210" y="190" width="100" height="30" as="geometry" />
        </mxCell>
        <mxCell id="72kNY6IZa3AUDY2A56L6-33" value="" style="group" vertex="1" connectable="0" parent="72kNY6IZa3AUDY2A56L6-4">
          <mxGeometry x="210" y="110" width="100" height="40" as="geometry" />
        </mxCell>
        <mxCell id="72kNY6IZa3AUDY2A56L6-25" value="" style="ellipse;whiteSpace=wrap;html=1;" vertex="1" parent="72kNY6IZa3AUDY2A56L6-33">
          <mxGeometry width="100" height="40" as="geometry" />
        </mxCell>
        <mxCell id="72kNY6IZa3AUDY2A56L6-31" value="Корзина" style="text;html=1;align=center;verticalAlign=middle;whiteSpace=wrap;rounded=0;" vertex="1" parent="72kNY6IZa3AUDY2A56L6-33">
          <mxGeometry x="20" y="5" width="60" height="30" as="geometry" />
        </mxCell>
        <mxCell id="72kNY6IZa3AUDY2A56L6-36" value="" style="group" vertex="1" connectable="0" parent="72kNY6IZa3AUDY2A56L6-4">
          <mxGeometry x="20" y="140" width="100" height="40" as="geometry" />
        </mxCell>
        <mxCell id="72kNY6IZa3AUDY2A56L6-9" value="" style="ellipse;whiteSpace=wrap;html=1;" vertex="1" parent="72kNY6IZa3AUDY2A56L6-36">
          <mxGeometry width="100" height="40" as="geometry" />
        </mxCell>
        <mxCell id="72kNY6IZa3AUDY2A56L6-24" value="Окно регистрации" style="text;html=1;align=center;verticalAlign=middle;whiteSpace=wrap;rounded=0;" vertex="1" parent="72kNY6IZa3AUDY2A56L6-36">
          <mxGeometry x="20" y="5" width="60" height="30" as="geometry" />
        </mxCell>
        <mxCell id="72kNY6IZa3AUDY2A56L6-37" value="Login" style="ellipse;whiteSpace=wrap;html=1;" vertex="1" parent="72kNY6IZa3AUDY2A56L6-4">
          <mxGeometry x="80" y="200" width="100" height="45" as="geometry" />
        </mxCell>
        <mxCell id="72kNY6IZa3AUDY2A56L6-40" value="invalid password" style="ellipse;whiteSpace=wrap;html=1;" vertex="1" parent="72kNY6IZa3AUDY2A56L6-4">
          <mxGeometry x="210" y="240" width="100" height="40" as="geometry" />
        </mxCell>
        <mxCell id="72kNY6IZa3AUDY2A56L6-41" value="" style="endArrow=none;html=1;rounded=0;exitX=1;exitY=0.5;exitDx=0;exitDy=0;entryX=0;entryY=0.5;entryDx=0;entryDy=0;" edge="1" parent="72kNY6IZa3AUDY2A56L6-4" source="72kNY6IZa3AUDY2A56L6-37" target="72kNY6IZa3AUDY2A56L6-40">
          <mxGeometry width="50" height="50" relative="1" as="geometry">
            <mxPoint x="140" y="140" as="sourcePoint" />
            <mxPoint x="190" y="90" as="targetPoint" />
          </mxGeometry>
        </mxCell>
        <mxCell id="72kNY6IZa3AUDY2A56L6-42" value="" style="group" vertex="1" connectable="0" parent="72kNY6IZa3AUDY2A56L6-4">
          <mxGeometry x="210" y="10" width="100" height="40" as="geometry" />
        </mxCell>
        <mxCell id="72kNY6IZa3AUDY2A56L6-27" value="" style="ellipse;whiteSpace=wrap;html=1;" vertex="1" parent="72kNY6IZa3AUDY2A56L6-42">
          <mxGeometry width="100" height="40" as="geometry" />
        </mxCell>
        <mxCell id="72kNY6IZa3AUDY2A56L6-34" value="Окно оформления" style="text;html=1;align=center;verticalAlign=middle;whiteSpace=wrap;rounded=0;" vertex="1" parent="72kNY6IZa3AUDY2A56L6-42">
          <mxGeometry x="20" width="60" height="30" as="geometry" />
        </mxCell>
        <mxCell id="72kNY6IZa3AUDY2A56L6-43" value="" style="endArrow=none;html=1;rounded=0;entryX=0.003;entryY=0.646;entryDx=0;entryDy=0;exitX=1;exitY=0.5;exitDx=0;exitDy=0;entryPerimeter=0;" edge="1" parent="72kNY6IZa3AUDY2A56L6-4" source="72kNY6IZa3AUDY2A56L6-37" target="72kNY6IZa3AUDY2A56L6-32">
          <mxGeometry width="50" height="50" relative="1" as="geometry">
            <mxPoint x="180" y="220" as="sourcePoint" />
            <mxPoint x="230" y="170" as="targetPoint" />
          </mxGeometry>
        </mxCell>
        <mxCell id="72kNY6IZa3AUDY2A56L6-12" value="&lt;font style=&quot;font-size: 7px;&quot;&gt;Администратор&lt;/font&gt;" style="text;html=1;align=center;verticalAlign=middle;whiteSpace=wrap;rounded=0;" vertex="1" parent="1">
          <mxGeometry x="70" y="110" width="60" height="30" as="geometry" />
        </mxCell>
        <mxCell id="72kNY6IZa3AUDY2A56L6-14" value="" style="endArrow=none;html=1;rounded=0;" edge="1" parent="1">
          <mxGeometry width="50" height="50" relative="1" as="geometry">
            <mxPoint x="100" y="300" as="sourcePoint" />
            <mxPoint x="100" y="300" as="targetPoint" />
            <Array as="points" />
          </mxGeometry>
        </mxCell>
        <mxCell id="72kNY6IZa3AUDY2A56L6-16" value="" style="endArrow=none;html=1;rounded=0;" edge="1" parent="1">
          <mxGeometry width="50" height="50" relative="1" as="geometry">
            <mxPoint x="100" y="300" as="sourcePoint" />
            <mxPoint x="100" y="300" as="targetPoint" />
            <Array as="points" />
          </mxGeometry>
        </mxCell>
        <mxCell id="72kNY6IZa3AUDY2A56L6-17" value="&lt;font style=&quot;font-size: 7px;&quot;&gt;Пользователь&lt;/font&gt;" style="text;html=1;align=center;verticalAlign=middle;whiteSpace=wrap;rounded=0;" vertex="1" parent="1">
          <mxGeometry x="70" y="350" width="60" height="30" as="geometry" />
        </mxCell>
        <mxCell id="72kNY6IZa3AUDY2A56L6-18" value="" style="endArrow=none;html=1;rounded=0;entryX=0;entryY=0.5;entryDx=0;entryDy=0;" edge="1" parent="1" target="72kNY6IZa3AUDY2A56L6-7">
          <mxGeometry width="50" height="50" relative="1" as="geometry">
            <mxPoint x="120" y="190" as="sourcePoint" />
            <mxPoint x="170" y="140" as="targetPoint" />
          </mxGeometry>
        </mxCell>
        <mxCell id="72kNY6IZa3AUDY2A56L6-21" value="" style="endArrow=none;html=1;rounded=0;entryX=0;entryY=0.5;entryDx=0;entryDy=0;" edge="1" parent="1" target="72kNY6IZa3AUDY2A56L6-10">
          <mxGeometry width="50" height="50" relative="1" as="geometry">
            <mxPoint x="120" y="355" as="sourcePoint" />
            <mxPoint x="170" y="305" as="targetPoint" />
          </mxGeometry>
        </mxCell>
        <mxCell id="72kNY6IZa3AUDY2A56L6-23" value="" style="endArrow=none;html=1;rounded=0;entryX=0;entryY=0.5;entryDx=0;entryDy=0;" edge="1" parent="1" target="72kNY6IZa3AUDY2A56L6-9">
          <mxGeometry width="50" height="50" relative="1" as="geometry">
            <mxPoint x="120" y="340" as="sourcePoint" />
            <mxPoint x="170" y="290" as="targetPoint" />
          </mxGeometry>
        </mxCell>
        <mxCell id="72kNY6IZa3AUDY2A56L6-38" value="" style="endArrow=none;html=1;rounded=0;exitX=1;exitY=0.75;exitDx=0;exitDy=0;entryX=0;entryY=0.5;entryDx=0;entryDy=0;" edge="1" parent="1" source="72kNY6IZa3AUDY2A56L6-2" target="72kNY6IZa3AUDY2A56L6-37">
          <mxGeometry width="50" height="50" relative="1" as="geometry">
            <mxPoint x="110" y="350" as="sourcePoint" />
            <mxPoint x="160" y="300" as="targetPoint" />
          </mxGeometry>
        </mxCell>
      </root>
    </mxGraphModel>
  </diagram>
</mxfile>
